PathFileType	4	(X/Y/Z)	/Users/itak/Documents/Research/Walk-IL/dataset/trc/00570_00009.trc
DataRate	CameraRate	NumFrames	NumMarkers	Units	OrigDataRate	OrigDataStartFrame	OrigNumFrames
100.000000	100.000000	4	53	mm	100.000000	328	526
Frame#	Time	RPSI			LPSI			L3			STRN			T10			C7			CLAV			RBAK			LBAK			LSHO			LUPA			LAEL			LAOL			LWTS			LWPS			LFRA			LIFD			LHPS			LHTS			RSHO			RUPA			RAEL			RAOL			RWTS			RWPS			RFRA			RIFD			RHTS			RHPS			RBHD			LFHD			RFHD			LBHD			LHIP			RHIP			RASI			LASI			LKNE			LTHI			LANK			LTIP			LTOE			LMT1			LMT5			LHEE			RKNE			RTHI			RANK			RTIP			RTOE			RMT1			RMT5			RHEE			
		X1	Y1	Z1	X2	Y2	Z2	X3	Y3	Z3	X4	Y4	Z4	X5	Y5	Z5	X6	Y6	Z6	X7	Y7	Z7	X8	Y8	Z8	X9	Y9	Z9	X10	Y10	Z10	X11	Y11	Z11	X12	Y12	Z12	X13	Y13	Z13	X14	Y14	Z14	X15	Y15	Z15	X16	Y16	Z16	X17	Y17	Z17	X18	Y18	Z18	X19	Y19	Z19	X20	Y20	Z20	X21	Y21	Z21	X22	Y22	Z22	X23	Y23	Z23	X24	Y24	Z24	X25	Y25	Z25	X26	Y26	Z26	X27	Y27	Z27	X28	Y28	Z28	X29	Y29	Z29	X30	Y30	Z30	X31	Y31	Z31	X32	Y32	Z32	X33	Y33	Z33	X34	Y34	Z34	X35	Y35	Z35	X36	Y36	Z36	X37	Y37	Z37	X38	Y38	Z38	X39	Y39	Z39	X40	Y40	Z40	X41	Y41	Z41	X42	Y42	Z42	X43	Y43	Z43	X44	Y44	Z44	X45	Y45	Z45	X46	Y46	Z46	X47	Y47	Z47	X48	Y48	Z48	X49	Y49	Z49	X50	Y50	Z50	X51	Y51	Z51	X52	Y52	Z52	X53	Y53	Z53	

329	3.28	141.3507843017578	1001.04296875	521.9703369140625	266.8044738769531	1003.018127441406	477.7326354980469	206.3134307861328	1103.30517578125	506.1189575195312	291.9519348144531	1288.808227539062	728.3262939453125	202.0918884277344	1228.873413085938	501.9714965820312	202.3706970214844	1501.954223632812	559.996337890625	282.4168090820312	1399.79296875	713.4826049804688	97.64561462402344	1375.338012695312	525.5576171875	273.7701110839844	1452.617065429688	492.5168151855469	389.8540954589844	1476.066650390625	548.5935668945312	455.9610595703125	1349.3271484375	500.7940368652344	482.4750061035156	1129.098388671875	493.9297790527344	392.6169128417969	1122.319946289062	448.7942504882812	493.7204284667969	883.8863525390625	590.1555786132812	528.9561767578125	863.8663940429688	511.9056091308594	500.5980834960938	1042.596069335938	506.2102661132812	488.6838073730469	715.2005615234375	576.1282958984375	526.634521484375	803.3560791015625	521.1744384765625	518.4750366210938	806.4071655273438	589.0367431640625	82.81806945800781	1460.497192382812	673.2052001953125	13.55168724060059	1395.103759765625	682.6865234375	-24.94184112548828	1105.303344726562	694.493408203125	-19.56993293762207	1086.0556640625	634.013916015625	71.27184295654297	901.9806518554688	823.9387817382812	-4.046163082122803	873.5263671875	804.7166748046875	-26.28471374511719	1050.472534179688	709.8262329101562	87.63868713378906	731.9432983398438	843.7376708984375	72.84510040283203	813.498779296875	863.4276733398438	9.703449249267578	801.7975463867188	826.5762329101562	166.7383728027344	1675.716430664062	653.8212280273438	340.5341491699219	1704.052490234375	765.859375	198.8727416992188	1694.513916015625	789.9970703125	331.6701354980469	1684.981323242188	633.689453125	429.9101257324219	931.4203491210938	554.962646484375	71.11109924316406	929.3145751953125	680.4572143554688	150.7120513916016	967.61865234375	745.107177734375	410.3931274414062	964.9180297851562	650.7232055664062	476.0667419433594	510.3135986328125	712.6626586914062	476.8087768554688	674.4200439453125	661.006591796875	405.9273986816406	123.4832153320312	417.8595581054688	440.3795776367188	317.7963562011719	545.1911010742188	462.9464111328125	51.69198226928711	608.8763427734375	396.5012512207031	69.39513397216797	571.344482421875	477.8197021484375	79.11187744140625	502.7940673828125	326.2448425292969	147.7086181640625	394.0254516601562	185.6475677490234	493.0258178710938	701.1779174804688	106.2126922607422	777.002197265625	721.5591430664062	241.0350646972656	41.63253784179688	601.3897705078125	218.4074859619141	352.5137634277344	691.756591796875	339.7821044921875	42.94242858886719	802.79931640625	364.5679626464844	39.80541610717773	728.5546264648438	259.6522216796875	43.65417861938477	732.6557006835938	278.9801940917969	31.36592864990234	534.075439453125	
330	3.29	144.7299652099609	1001.288269042969	526.6600952148438	270.6981201171875	1003.287414550781	483.7028503417969	209.6490478515625	1103.573486328125	511.6882629394531	293.5505676269531	1288.978759765625	734.5738525390625	205.1604309082031	1229.196044921875	507.5666809082031	204.9566040039062	1502.172607421875	565.8836059570312	284.2252197265625	1399.921508789062	719.6627807617188	100.3006591796875	1375.656005859375	530.9615478515625	276.62255859375	1452.8115234375	498.7387390136719	392.3906555175781	1476.200561523438	555.3292846679688	458.850341796875	1349.623413085938	507.6185302734375	485.840087890625	1129.554931640625	500.2679138183594	396.2593078613281	1122.745239257812	454.591552734375	497.1048889160156	884.1190795898438	595.8424682617188	532.716796875	864.3617553710938	517.787109375	504.078369140625	1043.049194335938	512.3935546875	492.5256958007812	715.4375610351562	581.4325561523438	530.5140380859375	803.8292236328125	526.9002075195312	522.0283813476562	806.7071533203125	594.716796875	84.88097381591797	1460.762817382812	678.5850830078125	15.56211948394775	1395.362060546875	687.8767700195312	-22.66222190856934	1105.542236328125	700.1502685546875	-17.11012649536133	1086.120849609375	639.6718139648438	74.1273193359375	903.3409423828125	830.7833251953125	-0.9623739123344421	874.4436645507812	811.547119140625	-23.83049011230469	1050.763793945312	715.6956176757812	91.33097076416016	733.52587890625	851.5569458007812	76.06351470947266	815.1622924804688	870.826416015625	13.0871524810791	802.8919677734375	833.8313598632812	169.1295471191406	1676.007446289062	659.6963500976562	342.4775085449219	1704.086059570312	772.48388671875	200.7738647460938	1694.693969726562	796.0054931640625	334.1361694335938	1685.06298828125	640.2686157226562	432.8840026855469	931.7908325195312	562.7927856445312	72.59998321533203	929.3765869140625	684.1328125	151.509033203125	967.5546875	749.7720336914062	412.3125915527344	965.5559692382812	658.537841796875	477.1969299316406	512.3610229492188	726.0714721679688	478.6892395019531	675.8057250976562	672.324462890625	420.3992614746094	115.1954345703125	442.5636291503906	448.5836181640625	314.1620788574219	563.7265014648438	473.9219360351562	51.96192169189453	637.66259765625	408.050048828125	66.73348236083984	597.852294921875	490.9363403320312	75.66188049316406	531.080078125	340.7840881347656	136.7648162841797	415.8192443847656	185.6307373046875	492.693359375	702.2473754882812	106.9728622436523	776.62646484375	724.0767822265625	241.1031188964844	41.71303558349609	601.2982788085938	218.5037231445312	352.250732421875	692.2858276367188	339.80712890625	42.9515266418457	802.8514404296875	364.552001953125	39.88351058959961	728.66455078125	259.6253356933594	43.61155700683594	732.673828125	279.0150451660156	31.43723297119141	534.026611328125	
331	3.3	148.123779296875	1001.473937988281	531.3602905273438	274.5936584472656	1003.516723632812	489.6807861328125	212.9626770019531	1103.806518554688	517.2067260742188	295.1171264648438	1289.107177734375	740.7965087890625	208.2365417480469	1229.473022460938	513.13720703125	207.5272979736328	1502.34619140625	571.7352294921875	286.0125732421875	1400.009521484375	725.8147583007812	102.947265625	1375.924926757812	536.3162231445312	279.4759216308594	1452.963256835938	504.9231872558594	394.9212646484375	1476.304809570312	562.0371704101562	461.7387390136719	1349.882568359375	514.4630737304688	489.2262878417969	1129.970581054688	506.7291870117188	399.9088745117188	1123.107666015625	460.5289001464844	500.5260925292969	884.2958374023438	601.642578125	536.532958984375	864.824462890625	523.7821655273438	507.5854187011719	1043.465209960938	518.7070922851562	496.409912109375	715.6150512695312	586.7654418945312	534.4415893554688	804.269775390625	532.7174682617188	525.611328125	806.9397583007812	600.4725952148438	86.91556549072266	1460.966918945312	683.9228515625	17.55211639404297	1395.542724609375	693.0059204101562	-20.41240882873535	1105.716674804688	705.70166015625	-14.67001914978027	1086.137329101562	645.233642578125	76.88173675537109	904.5921630859375	837.4837646484375	2.02069878578186	875.2677612304688	818.21044921875	-21.42751121520996	1050.994384765625	721.4468994140625	94.90303039550781	735.0001831054688	859.18603515625	79.15885925292969	816.7228393554688	878.0653686523438	16.32169151306152	803.891357421875	840.9204711914062	171.4633331298828	1676.227294921875	665.5322875976562	344.3688659667969	1704.091918945312	779.0563354492188	202.6275939941406	1694.837280273438	801.95556640625	336.5592651367188	1685.103149414062	646.8053588867188	436.0915222167969	932.4012451171875	571.0687255859375	74.14314270019531	929.41015625	687.8130493164062	152.3161926269531	967.4791870117188	754.4279174804688	414.2257080078125	966.155517578125	666.3355712890625	478.1617431640625	514.3502807617188	739.1187133789062	480.4143676757812	677.1044311523438	683.3446655273438	434.2033996582031	107.2467651367188	467.8763122558594	456.439453125	310.6266479492188	582.4257202148438	483.6257629394531	52.47253799438477	666.6741333007812	418.5458068847656	64.43565368652344	624.659912109375	503.0187683105469	72.44686126708984	559.8157348632812	354.8914794921875	126.272575378418	438.2457275390625	185.7096710205078	492.3814697265625	703.4148559570312	107.9517135620117	776.3277587890625	726.7705688476562	241.068115234375	41.82598114013672	601.18115234375	218.6174774169922	351.9906921386719	692.9031372070312	339.8421325683594	42.97320175170898	802.9168090820312	364.5281677246094	39.97727203369141	728.7898559570312	259.5872802734375	43.57508087158203	732.691162109375	278.9967041015625	31.60193252563477	534.0590209960938	
332	3.31	151.5337524414062	1001.604187011719	536.0756225585938	278.4921875	1003.704895019531	495.6671752929688	216.26123046875	1104.005126953125	522.6731567382812	296.6548461914062	1289.19482421875	746.9918212890625	211.3276824951172	1229.70263671875	518.6907348632812	210.0863494873047	1502.4736328125	577.5510864257812	287.7867126464844	1400.060546875	731.9403686523438	105.589973449707	1376.145385742188	541.6248779296875	282.3324584960938	1453.07470703125	511.07275390625	397.4507446289062	1476.385986328125	568.7178344726562	464.6238403320312	1350.10986328125	521.32080078125	492.6189575195312	1130.345703125	513.3082275390625	403.5448913574219	1123.40869140625	466.6184692382812	503.9938659667969	884.4263916015625	607.559814453125	540.3887939453125	865.2548828125	529.8768920898438	511.1061401367188	1043.846435546875	525.142333984375	500.3251037597656	715.7435913085938	592.1311645507812	538.404052734375	804.6787719726562	538.61376953125	529.2202758789062	807.108642578125	606.3020629882812	88.92471313476562	1461.114135742188	689.2176513671875	19.52927398681641	1395.650634765625	698.0702514648438	-18.18756484985352	1105.830688476562	711.1497802734375	-12.25353240966797	1086.106079101562	650.7040405273438	79.54785919189453	905.7294921875	844.0320434570312	4.898821830749512	875.9955444335938	824.70751953125	-19.0719165802002	1051.166259765625	727.0835571289062	98.34037017822266	736.3527221679688	866.6077270507812	82.13024139404297	818.16455078125	885.1295776367188	19.40254974365234	804.7947998046875	847.8351440429688	173.7466278076172	1676.378662109375	671.3416748046875	346.2143249511719	1704.065551757812	785.5823364257812	204.4357604980469	1694.940307617188	807.860107421875	338.941162109375	1685.107055664062	653.3043212890625	439.5739440917969	933.30517578125	579.8377075195312	75.73365020751953	929.4173583984375	691.4981079101562	153.14501953125	967.397705078125	759.0936279296875	416.1060791015625	966.7042236328125	674.0989990234375	479.0101623535156	516.2808837890625	751.7974243164062	482.0184326171875	678.3123168945312	694.0521240234375	447.2248840332031	99.71760559082031	493.7157592773438	463.8881530761719	307.2485656738281	601.26416015625	492.0170593261719	53.23928451538086	695.7920532226562	427.9263000488281	62.5297737121582	651.6420288085938	514.0037231445312	69.51217651367188	588.8798828125	368.4459533691406	116.3315124511719	461.24169921875	185.8944396972656	492.0977783203125	704.7066650390625	109.0837554931641	776.08203125	729.61181640625	240.9535675048828	41.95321655273438	601.0460205078125	218.7424926757812	351.7441101074219	693.6387329101562	339.882568359375	43.00354385375977	802.9923706054688	364.48388671875	40.07363128662109	728.9183959960938	259.5342407226562	43.54710388183594	732.7075805664062	278.9593200683594	31.83012962341309	534.1492309570312	
